<svg width="9" height="16" viewBox="0 0 9 16" fill="currentColor" xmlns="http://www.w3.org/2000/svg">
<path d="M7.95166 0.00317986L5.96979 0C3.74322 0 2.30432 1.47625 2.30432 3.76114V5.49528H0.311631C0.139439 5.49528 0 5.63488 0 5.80707V8.31963C0 8.49182 0.139598 8.63126 0.311631 8.63126H2.30432V14.9713C2.30432 15.1435 2.44375 15.2829 2.61595 15.2829H5.21584C5.38803 15.2829 5.52747 15.1433 5.52747 14.9713V8.63126H7.85738C8.02957 8.63126 8.16901 8.49182 8.16901 8.31963L8.16996 5.80707C8.16996 5.72439 8.13705 5.64521 8.0787 5.5867C8.02035 5.52819 7.94085 5.49528 7.85817 5.49528H5.52747V4.02523C5.52747 3.31866 5.69584 2.95998 6.61626 2.95998L7.95135 2.9595C8.12338 2.9595 8.26282 2.8199 8.26282 2.64787V0.314806C8.26282 0.142935 8.12354 0.00349785 7.95166 0.00317986Z" fill="black"/>
</svg>
