<svg width="700" height="300" viewBox="0 0 700 300" fill="none" xmlns="http://www.w3.org/2000/svg">
<g id="AnhKhoa-signature">
    <path id="AnhKhoa" d="M181.5 93.5C181.5 93.5 141.436 172.5 101 210.5C83.4427 227 71.0007 235.5 49.5004 243.5C38.5007 247.593 20.0008 251.186 15.5004 245.5C10.0005 238.552 15.5944 221.928 16.5005 218C18 211.5 33.5 175.5 50.0004 150.5C54.6205 143.5 91.9664 82.2226 94.5 78C97.5 73 124.951 15.6468 126.5 11.0001C127.42 8.23968 114.403 69.419 110.5 107C107.127 139.481 106 187 106 190.5C106 193.5 103 228.5 120.5 235C129.173 238.221 138 236 144 232.5C155.5 225.792 161 214.5 164 208.5C166.751 203 176 168 177 169C179.5 171.5 175.551 228.816 176.5 228.5C178 228 181.5 166.621 193 169C199.629 170.372 201.304 180.539 202 183.5C206 200.5 199 221 203.5 221.5C205.421 221.713 206 219 206.5 217.5C207.501 214.5 245 50.6251 246.5 51C247.47 51.2424 234.53 145 234 150.5C233.47 156 232 218 227 218.5C225.7 218.63 227.729 209.585 228 208.5C228.5 206.5 230.5 194.5 231 192.5C231.364 191.044 233.912 173.266 234.5 171.5C236.056 166.832 241 158 249 157.5C259.5 156.844 261 161 262 164C263.834 169.5 263 183.5 263 188.5C263 193.5 263 202 264.5 207C265.421 210.067 266.365 212.848 269.5 213.5C271.714 213.96 277.337 210.317 279 209C292.5 198.312 318.698 155.5 325.5 136C339.536 95.7652 367 34.2499 368.5 35C370 35.7501 353.962 77 352 85.5C350.376 92.5357 342.859 117.583 337 137.5C334.5 146 333 165.497 333 167C333 169.5 331 229.5 315.5 258C310.478 267.235 300 275.5 288 268.5C278.724 263.089 280.5 248.5 287.5 240.5C299.025 227.33 310 211.5 313.5 204C315.726 199.231 329.37 173.5 335 155C337.451 146.946 354 104.796 372 87C379.201 79.8812 390.5 68.5 398 64.5C401.689 62.533 424.792 55.8759 425 56.5C425.208 57.1241 401.715 65.3923 396.5 68C390.5 71 384.401 81.38 381.5 87C373.5 102.5 372.5 119 365.5 134.5C359.782 147.161 343.5 152.35 337 153C332 153.5 328.676 151.806 329 150.5C329.324 149.194 332.024 148.058 336 148.5C340.5 149 347.481 152.378 349 153C360 157.5 363.449 172.108 365 178C366.316 183 366.011 199.62 375.5 207C380 210.5 388.5 211.5 395.5 208C408.052 201.724 413 184 414.5 177.5C416.001 171 436 47 437 45.5C438 44 422.5 190 422 195.5C421.545 200.5 421.5 207 420 208C418.74 208.84 418 205.5 419.5 199C424.271 178.324 423.828 163.129 428 152C429.5 148 433.5 136.671 444.5 137C454.5 137.299 457.5 146.5 460 151.5C462.001 155.5 464.5 174 463.5 182.5C463.03 186.5 463.5 195 466.5 196.5C469.199 197.849 471.775 197.612 475 196C479 194 487.5 181 490.5 172.5C493.501 164 504.5 145.167 503.5 144.5C502.365 143.743 496 158 494.5 161.5C493.5 163.835 490.13 173.5 491 179C492.183 186.473 494.149 189.061 499 192.5C503.851 195.939 510.77 196.373 515.5 194.5C520 192.718 523.898 187.62 526.5 181.5C528.839 176 529.565 170.378 528 163.5C526.863 158.5 525.074 154.073 520.5 149.5C515.926 144.927 507.501 141.5 507 142.5C506.5 143.5 509.786 151.642 513 154.5C517.5 158.5 520.183 159.586 525.5 161C533.721 163.185 549 158.5 554 155C558 152.2 572.681 147.862 572.5 147.5C572.288 147.075 546.251 153.713 539 162C535.5 166 534.5 174.5 534.5 176.5C534.501 180.771 537.546 187 540.5 189.5C544.637 193 554.334 194.643 560.5 192C567.5 189 569.5 183 570.5 177C571.167 173 572.5 161 572.5 160C572.5 158.5 571.5 149 571 149C569.5 149 566.948 178.726 572.5 186.5C575 190 579 194 584 195C592.563 196.712 602.5 193 608.5 190C614.5 187 648.5 168 663 154.5C664.213 153.371 665.371 152.213 666.5 151" stroke="currentColor" stroke-width="5" stroke-linecap="round"/>
    <path id="Underline" d="M10 288.51C37.2924 287.38 62.4813 285.317 90.0239 281.353C290.278 252.531 490.049 218.663 690 187.167" stroke="currentColor" stroke-width="5" stroke-linecap="round"/>
</g>
</svg>
