<svg width="153" height="153" viewBox="0 0 153 153" fill="currentColor" xmlns="http://www.w3.org/2000/svg">
<path fill-rule="evenodd" clip-rule="evenodd" d="M76.5 1.50005C35.0786 1.50005 1.5 35.0787 1.5 76.5001C1.5 117.921 35.0786 151.5 76.5 151.5C117.921 151.5 151.5 117.921 151.5 76.5001C151.5 56.6088 143.598 37.5323 129.533 23.467C115.468 9.40182 96.3912 1.50005 76.5 1.50005ZM76.4998 24.0001C88.9262 24.0001 98.9998 34.0736 98.9998 46.5001C98.9998 58.9265 88.9262 69.0001 76.4998 69.0001C64.0734 69.0001 53.9998 58.9265 53.9998 46.5001C53.9998 34.0736 64.0734 24.0001 76.4998 24.0001ZM76.5001 128.901C93.1131 128.901 108.746 121.038 118.65 107.7C120.185 105.457 120.386 102.559 119.175 100.125L117.45 96.6001C113.676 88.8981 105.852 84.0115 97.275 84.0001H55.7251C47.026 84.0095 39.1117 89.0326 35.4001 96.9001L33.8251 100.2C32.6439 102.614 32.8442 105.475 34.3501 107.7C44.2543 121.038 59.887 128.901 76.5001 128.901Z" fill="#DCE2E4"/>
</svg>
