<svg width="1061" height="629" viewBox="0 0 1061 629" fill="none" xmlns="http://www.w3.org/2000/svg">
<g id="Duy-signature">
<path id="D" d="M736.238 147.093C747.344 122.715 763.442 96.362 754.167 68.5383C745.848 43.5794 719.856 6.69713 691.324 4.21605C663.975 1.83792 657.934 19.312 656.575 45.8037C654.515 85.9753 654.134 128.559 658.054 168.534C665.821 247.761 669.143 337.026 579.869 369.263C545.722 381.594 463.645 382.487 450.855 339.32C446.483 324.567 469.451 330.079 478.395 330.079C506.377 330.079 536.396 326.443 563.234 335.069C599.207 346.632 608.195 385.362 641.788 398.282C697.662 419.772 759.706 384.768 770.987 326.752C777.488 293.318 779.916 257.402 767.66 225.093C757.144 197.369 733.849 161.055 706.665 147.463C647.226 117.743 549.113 143.633 497.433 177.036C446.638 209.867 411.862 257.455 366.94 296.809C319.169 338.657 268.487 375.828 218.703 415.102C202.165 428.149 183.546 438.703 167.873 452.809C155.483 463.96 166.979 463.159 178.594 463.159C264.15 463.159 345.818 426.145 427.196 403.088C468.262 391.453 508.647 376.755 550.665 368.709C558.823 367.147 579.741 359.604 564.528 370.188C514.496 404.993 463.558 437.603 407.973 463.159C371.48 479.938 256.015 514.384 295.224 505.671C361.724 490.893 427.989 471.485 495.215 460.572C501.302 459.583 547.069 453.142 541.054 457.984C519.082 475.669 489.452 483.559 463.423 493.102C358.006 531.755 246.683 563.36 137.376 588.846C95.4012 598.633 -29.3146 632.85 12.4279 622.117" stroke="currentColor" stroke-width="8" stroke-linecap="round"/>
<path id="Underline" d="M10.5 622.5C10.5 622.5 171.305 566.601 352 529C438.5 511 801.5 414 801.5 414L1057 348.5" stroke="currentColor" stroke-width="8" stroke-linecap="round"/>
</g>
</svg>
