<svg width="31" height="30" viewBox="0 0 31 30" fill="currentColor" xmlns="http://www.w3.org/2000/svg">
<path fill-rule="evenodd" clip-rule="evenodd" d="M14.2023 2.5H22.6523C24.0331 2.5 25.1523 3.61929 25.1523 5V25C25.1523 26.3807 24.0331 27.5 22.6523 27.5H7.65234C6.27163 27.5 5.15234 26.3807 5.15234 25V11.55C5.15322 10.5558 5.54888 9.60259 6.25234 8.9L11.5523 3.6C12.2549 2.89654 13.2081 2.50088 14.2023 2.5ZM7.65234 12.5V25H22.6523V5H15.1523V11.25C15.1523 11.9404 14.5927 12.5 13.9023 12.5H7.65234ZM10.1523 15.625V16.875C10.1523 17.2202 10.4322 17.5 10.7773 17.5H19.5273C19.8725 17.5 20.1523 17.2202 20.1523 16.875V15.625C20.1523 15.2798 19.8725 15 19.5273 15H10.7773C10.4322 15 10.1523 15.2798 10.1523 15.625ZM10.7773 20H15.7773C16.1225 20 16.4023 20.2798 16.4023 20.625V21.875C16.4023 22.2202 16.1225 22.5 15.7773 22.5H10.7773C10.4322 22.5 10.1523 22.2202 10.1523 21.875V20.625C10.1523 20.2798 10.4322 20 10.7773 20Z" fill="#2E3191"/>
</svg>
