<svg width="1828" height="1229" viewBox="0 0 1828 1229" fill="none" xmlns="http://www.w3.org/2000/svg">
<g id="Ha-signature">
    <path id="Ha" d="M4 544.998C26 549.498 42.5 551.498 58.5 553.998C74.5 556.498 95.474 558.074 116.5 558.998C162 560.998 182.927 560.998 215.889 560.998C259.367 560.998 315.5 560.062 349.5 558.998C383.5 557.933 416 556.373 471 543.998C529.5 530.835 530 528.998 589.5 504.498C606 497.704 616.475 493.98 632 487.498C671.5 471.007 664 474.272 654.556 478.331C672.999 470.427 686.167 465.72 711.5 452.498C740.5 437.362 752.5 430.407 773.5 421.498C785.709 416.318 807.5 405.109 822 399.998C829 397.531 836.571 401.498 837.889 406.109C851.454 453.587 831.455 499.62 820.444 545.664C815.898 564.676 808.801 583.57 804 602.776C797.878 627.265 791.173 651.409 782 674.998C773.113 697.85 766.09 721.713 759.111 745.22C753.3 764.794 750.735 786.425 744 805.442C732.519 837.859 728.865 873.31 720 906.553C709.61 945.516 695.291 984.437 687.556 1023.89C685.836 1032.66 680.547 1042.24 680 1051C679.426 1060.18 680.254 1032.55 681.556 1023.44C685.848 993.396 694.844 964.398 703.111 935.22C707.651 919.197 715.661 904.281 722 888.887C728.308 873.568 733.114 857.931 739.111 842.664C754.217 804.212 759.965 763.55 762.111 722.776C763.424 697.836 762.52 677.958 761 648.998C759.111 612.998 759.111 605.998 754 585.887C736.5 545.664 729 546.405 718.889 543.998C705.333 540.77 692.864 540.802 669 543.998C656.556 545.664 644.911 547.925 632 552.998C594 567.926 592.143 572.859 571 585.998C544 602.776 538.968 610.829 525.889 624.998C494.057 659.482 468 696.306 468 744.776C468 792.121 517.641 810.998 559 810.998C580.401 810.998 601.801 810.277 622.889 806.109C649.9 800.769 679.389 796.558 705.333 787.442C728.094 779.445 748.798 766.935 771.556 759.442C801.606 749.547 829.024 737.051 857.778 723.887C887.713 710.181 913.274 688.725 942.667 673.664C981.395 653.82 1013.78 626.376 1047.78 599.664C1119.08 543.64 1184.99 478.314 1232 400.331C1271.75 334.388 1298.57 264.603 1329.56 194.553C1350.02 148.294 1371.5 96.4995 1374 64.9995C1375.31 48.5512 1372.5 33.5 1364.5 24.5C1361.76 21.4211 1357.5 14.5 1329.56 6.99961C1323.73 5.43608 1310 2.55911 1285.5 5.5C1273 7.00046 1255.5 9.00011 1222 26.9976C1172.16 53.7732 1120 112.442 1073 166.998C1044.19 200.442 987.454 290.425 958.111 346.665C927.79 404.78 907.725 468.174 885.111 529.553C869.077 573.074 862.5 577.998 840.111 658.887C822.12 723.887 831 736.014 841.889 768.109C865.5 817.887 860.591 808.109 874 824.498C883.979 836.694 897.165 843.064 912 848.998C928.637 855.653 957.621 856.984 975.5 854.998C993.5 852.998 1004 849.998 1012 845.998C1020 841.998 1038.19 829.34 1045 824.498C1071 806 1080.33 796.5 1101.33 782.998C1124.09 762.635 1145.46 754.421 1164.89 730.553C1190.57 698.998 1201.47 671.161 1204.5 655.998C1209 633.5 1204.5 618.5 1198.11 616.011C1191.73 613.523 1185.61 611.326 1168.11 613.456C1147.11 616.011 1125.67 619.002 1103 629.5C1062.5 647 996.523 678.648 960 716.998C948.331 729.251 937.849 747.175 934.111 763.998C930.964 778.16 938.314 782.998 951 782.998C965.605 782.998 978.5 775.5 988.096 767.926C1001.5 757.346 1014.92 743.64 1023.1 728.316C1027.74 719.601 1029.11 697.173 1032 687.776C1032.94 684.734 1035.5 670.483 1035.5 673.664C1035.5 679.841 1032.75 690.064 1032.11 696.109C1030.77 708.878 1021.85 738.085 1031.11 749.998C1051.11 775.714 1083.64 776.319 1114.78 781.109C1149.5 782.998 1180.02 782.998 1212 782.998C1224.46 782.998 1251.94 782.669 1264 782C1282 781 1290.5 780.5 1308.5 778C1328 774.5 1342 772 1364 765C1383.91 758.665 1385 758 1423.5 744C1450 732.5 1475 724.5 1497.5 714.5C1534.5 696.5 1582.28 685.335 1600.44 648.998C1607.21 635.465 1607 619.441 1592 613.442C1583.64 610.099 1577.19 610.548 1566.5 610.548C1548.5 610.548 1526 612 1501.83 614.104" stroke="currentColor" stroke-width="7" stroke-linecap="round"/>
    <path id="Underline" d="M68 1225C400.136 1157.63 725.259 1058.84 1057.78 993C1246.63 955.605 1435.34 926.824 1627.78 919.444C1693.2 916.936 1758.58 914.768 1824 913" stroke="currentColor" stroke-width="7" stroke-linecap="round"/>
</g>
</svg>
