<svg width="1072" height="603" viewBox="0 0 1072 603" fill="none" xmlns="http://www.w3.org/2000/svg">
<g id="Lam-signature">
<g id="Am">
<path id="Vector" d="M535.635 323.525C535.635 323.525 509.21 303.012 462.233 361.621C442.37 386.402 427 402.118 427 434.882C427 449.534 482.785 408.508 500.402 390.926C509.21 382.134 562.059 336.846 567.932 338.177C573.804 339.509 530.179 395.158 532.699 437.812C535.468 484.699 689.097 286.216 705.927 303.012C714.735 311.803 582.612 402.647 588.484 434.882C591.687 452.465 697.119 349.899 747.032 349.899C791.073 349.899 759.601 398.897 785.201 408.508C794.009 411.815 828.489 361.621 864.475 361.621C882.091 361.621 919.772 391.445 961.365 387.995C1006.34 384.264 1070 338.177 1070 338.177" stroke="currentColor" stroke-width="5" stroke-linecap="round"/>
</g>
<g id="L">
<path id="Vector_2" d="M677.618 217.511C677.618 217.511 768.543 65.0337 739.213 18.1184C665.887 -99.1716 258.184 504.869 70.4618 493.141C8.8683 489.293 2.99794 463.819 3 422.767C3.00269 369.094 46.9968 302.546 79.2611 308.41C143.79 320.139 129.124 622.159 431.236 598.702C803.742 569.778 924 443.293 924 443.293" stroke="currentColor" stroke-width="5" stroke-linecap="round"/>
</g>
</g>
</svg>
