<svg width="17" height="16" viewBox="0 0 17 16" fill="none" xmlns="http://www.w3.org/2000/svg">
<path fill-rule="evenodd" clip-rule="evenodd" d="M0.819824 2.13197C0.819824 1.11076 1.64768 0.282898 2.6689 0.282898C3.1593 0.282898 3.62962 0.47771 3.97639 0.824478C4.32315 1.17125 4.51797 1.64156 4.51797 2.13197C4.51797 3.15318 3.69011 3.98104 2.6689 3.98104C1.64768 3.98104 0.819824 3.15318 0.819824 2.13197ZM16.9992 9.90731C17.0311 7.90559 15.6655 6.15149 13.7171 5.69143C12.4114 5.41028 11.0504 5.77895 10.0652 6.68068V6.29237C10.0652 6.03707 9.85821 5.83011 9.60291 5.83011H7.29157C7.03627 5.83011 6.8293 6.03707 6.8293 6.29237V15.5377C6.8293 15.793 7.03627 16 7.29157 16H9.60291C9.85821 16 10.0652 15.793 10.0652 15.5377V10.3233C10.0423 9.39485 10.6895 8.58399 11.5999 8.40031C12.142 8.30673 12.6976 8.4594 13.1158 8.81682C13.534 9.17425 13.7713 9.69932 13.7633 10.2494V15.5377C13.7633 15.793 13.9703 16 14.2256 16H16.5369C16.7922 16 16.9992 15.793 16.9992 15.5377V9.90731ZM4.51797 6.29238V15.5377C4.51797 15.793 4.311 16 4.0557 16H1.74436C1.48906 16 1.28209 15.793 1.28209 15.5377V6.29238C1.28209 6.03708 1.48906 5.83011 1.74436 5.83011H4.0557C4.311 5.83011 4.51797 6.03708 4.51797 6.29238Z" fill="white"/>
</svg>
