<svg width="25" height="24" viewBox="0 0 25 24" fill="currentColor" xmlns="http://www.w3.org/2000/svg">
<path fill-rule="evenodd" clip-rule="evenodd" d="M18.1523 10V8C18.1523 4.68629 15.4661 2 12.1523 2C8.83864 2 6.15234 4.68629 6.15234 8V10C5.04777 10 4.15234 10.8954 4.15234 12V20C4.15234 21.1046 5.04777 22 6.15234 22H18.1523C19.2569 22 20.1523 21.1046 20.1523 20V12C20.1523 10.8954 19.2569 10 18.1523 10ZM8.15234 8C8.15234 5.79086 9.9432 4 12.1523 4C14.3615 4 16.1523 5.79086 16.1523 8V10H8.15234V8ZM13.1523 18C13.7046 18 14.1523 17.5523 14.1523 17V15C14.1523 14.4477 13.7046 14 13.1523 14H11.1523C10.6001 14 10.1523 14.4477 10.1523 15V17C10.1523 17.5523 10.6001 18 11.1523 18H13.1523Z" fill="#6A818A"/>
</svg>
