<svg width="1415" height="538" viewBox="0 0 1415 538" fill="none" xmlns="http://www.w3.org/2000/svg">
<g id="Minh-Signature">
<g id="Minh">
<path id="Vector 1" d="M78.9746 505.412C148.583 410.808 205.839 308.367 278.052 215.337C317.511 164.502 359.23 111.213 407.266 68.2916C416.936 59.6513 484.369 -11.279 501.24 5.58106C506.032 25.8152 493.846 71.9381 485.784 91.4605C470.868 127.578 451.78 155.561 426.741 196.802C399.986 230.074 386.476 276.915 357.188 308.013C337.787 328.611 389.747 248.756 404.484 224.604C425.041 190.913 451.807 160.44 478.21 132.856C508.814 100.882 559.574 59.8602 572.803 73.0798C576.976 77.2502 557.18 111.415 554.719 116.174C535.737 152.875 496.82 214.085 474.037 248.237C461.518 267.699 467.082 259.358 457.344 278.82C456.557 280.729 492.048 252.472 493.512 251.171C499.076 247.156 508.193 239.319 512.987 235.726C518.551 231.555 517.856 231.401 528.289 223.214C537.147 216.264 546.373 209.313 556.11 210.703C563.065 213.483 532.616 239.896 528.289 252.407C521.488 267.699 543.59 257.968 551.937 251.171C560.437 244.25 568.63 237.116 588.104 223.214C607.579 213.483 529.68 305.232 586.713 253.797C588.277 251.063 622.881 220.434 618.553 234.49C611.753 248.546 600.26 262.385 597.842 273.259C592.654 296.587 639.493 247.485 642.356 241.286C653.485 227.385 659.524 218.739 667.395 207.923C679.281 191.591 687.494 181.956 700.781 166.219C722.833 140.1 744.943 109.506 767.552 84.2009C844.568 -2 781.463 71 762.76 94.7041C749.509 111.5 746.686 112.004 721.108 141.196C706.57 159.268 696.086 171.779 681.024 190.006C674.936 201.768 662.77 215.779 656.267 227.385C650.601 237.495 627.604 266.023 618.553 273.259C608.97 294.111 647.673 261.527 656.267 253.797C670.177 241.286 681.024 231.555 691.043 223.369C711.909 209.776 747.479 171.014 781.463 182.9C793.003 186.937 805.111 195.412 800.937 206.842C797.954 215.012 759.205 267.699 748.077 278.82C742.513 284.38 799.856 265.227 806.502 260.748C846.843 244.066 881.328 224.791 919.178 207.923C993.193 174.938 989.951 167.386 1065.24 137.18C1103.39 121.876 1136.15 104.563 1175.13 91.4605C1188.17 87.0796 1259.25 51.6953 1272.51 55.008" stroke="currentColor" stroke-width="5" stroke-linecap="round"/>
</g>
<g id="UnderLine">
<path id="Vector 2" d="M3 534.821C293.236 455.388 593.536 413.463 890.458 367.895C1028.42 346.723 1167.33 328.6 1304.5 302.677C1340.43 295.888 1375.83 288.478 1412.2 284.841" stroke="currentColor" stroke-width="5" stroke-linecap="round"/>
</g>
</g>
</svg>
