<svg width="925" height="563" viewBox="0 0 925 563" fill="none" xmlns="http://www.w3.org/2000/svg">
<g id="MKhoa-signature">
<path id="Khoa" d="M138.558 4C104.835 29.1126 83.5972 67.1446 80.8337 109.289C79.3081 132.554 84.5533 160.819 113.159 161.933C180.665 164.563 273.18 116.784 310.576 59.8769C327.587 33.9908 327.095 -8.6465 302.956 41.4052C251.524 148.05 220.037 265.079 147.332 360.504C139.31 371.033 106.758 403.798 99.3054 375.051C80.2386 301.507 195.293 272.856 241.538 248.288C284.854 225.276 329.665 197.577 364.144 162.395C378.892 147.346 397.221 132.833 402.472 111.829C416.738 54.7671 355.941 128.088 345.441 140.229C305.041 186.941 259.014 248.319 200.9 273.225C194.991 275.758 198.255 266.79 203.671 266.068C225.243 263.191 248.89 260.553 270.631 261.911C312.863 264.551 273.762 340.085 298.338 348.036C309.964 351.797 329.127 348.022 338.745 341.109C375.684 314.559 408.119 267.808 434.798 231.202C443.99 218.59 473.048 164.394 456.271 147.618C444.658 136.005 411.207 266.18 409.63 274.611C408.834 278.867 398.176 328.135 407.321 309.014C416.612 289.589 436.183 271.419 454.193 260.295C498.054 233.205 487.328 317.864 487.673 340.647C488.606 402.202 598.059 274.435 560.406 266.068C535.203 260.467 518.666 291.342 522.77 313.401C533.555 371.375 612.249 337.713 643.759 318.019C709.38 277.006 574.952 223.932 574.952 285.694C574.952 338.758 670.443 298.317 690.4 291.235C694.413 289.812 765.899 264.371 727.806 265.837C703.111 266.786 688.012 308.603 716.261 318.019C736.997 324.931 812.145 303.229 803.309 272.302C801.617 266.38 776.692 291.383 774.447 293.082C763.504 301.367 737.042 311.331 737.042 328.179C737.042 347.815 784.18 342.868 794.535 338.338C799.579 336.131 820.698 318.667 814.392 320.559C728.244 346.403 643.353 376.555 556.48 400.68C381.688 449.222 186.079 483.932 16.6309 550.123" stroke="currentColor" stroke-width="7" stroke-linecap="round"/>
<path id="Underline" d="M15.9998 550.5C15.9998 550.5 1.55163 554.869 5.49978 558C19.9998 569.5 421.5 476.018 507.5 464.5C576.5 455.258 801 420.5 921 426.5" stroke="currentColor" stroke-width="8" stroke-linecap="round"/>
</g>
</svg>
