<svg width="50" height="50" viewBox="0 0 50 50" fill="currentColor" xmlns="http://www.w3.org/2000/svg">
<path fill-rule="evenodd" clip-rule="evenodd" d="M25.0003 4.16666C13.4944 4.16666 4.16699 13.4941 4.16699 25C4.16699 36.5059 13.4944 45.8333 25.0003 45.8333C36.5063 45.8333 45.8337 36.5059 45.8337 25C45.8337 19.4747 43.6387 14.1756 39.7317 10.2686C35.8247 6.3616 30.5257 4.16666 25.0003 4.16666ZM25.0003 10.4167C28.4521 10.4167 31.2503 13.2149 31.2503 16.6667C31.2503 20.1184 28.4521 22.9167 25.0003 22.9167C21.5485 22.9167 18.7503 20.1184 18.7503 16.6667C18.7503 13.2149 21.5485 10.4167 25.0003 10.4167ZM25.0004 39.5558C29.6151 39.5558 33.9576 37.3716 36.7087 33.6667C37.135 33.0435 37.1908 32.2385 36.8546 31.5625L36.3754 30.5833C35.3271 28.4439 33.1537 27.0865 30.7712 27.0833H19.2296C16.8132 27.0859 14.6147 28.4812 13.5837 30.6667L13.1462 31.5833C12.8181 32.2538 12.8738 33.0485 13.2921 33.6667C16.0432 37.3716 20.3857 39.5558 25.0004 39.5558Z" fill="#DCE2E4"/>
</svg>
