<svg width="17" height="13" viewBox="0 0 17 13" fill="currentColor" xmlns="http://www.w3.org/2000/svg">
<path d="M16.1527 1.5284C15.5618 1.78761 14.9322 1.95942 14.2757 2.04284C14.951 1.63963 15.4665 1.00603 15.7088 0.24232C15.0791 0.617717 14.384 0.882879 13.6431 1.03085C13.0452 0.394267 12.1931 0 11.2636 0C9.46003 0 8.00808 1.46385 8.00808 3.25841C8.00808 3.51662 8.02993 3.7649 8.08356 4.00126C5.37531 3.86917 2.97889 2.57117 1.36904 0.593883C1.08798 1.0815 0.923124 1.63963 0.923124 2.24047C0.923124 3.36865 1.5041 4.36871 2.37011 4.9477C1.84673 4.93777 1.33329 4.78582 0.898296 4.54648C0.898296 4.55641 0.898296 4.56932 0.898296 4.58223C0.898296 6.16526 2.02748 7.48014 3.50823 7.78304C3.24307 7.85554 2.95407 7.8903 2.65414 7.8903C2.44559 7.8903 2.23504 7.87838 2.03741 7.83468C2.45949 9.12474 3.6572 10.0732 5.08134 10.1039C3.97301 10.9709 2.56575 11.4933 1.0423 11.4933C0.775148 11.4933 0.518922 11.4814 0.262695 11.4486C1.70571 12.3792 3.41587 12.9105 5.2601 12.9105C11.2546 12.9105 14.5319 7.94492 14.5319 3.64076C14.5319 3.49676 14.527 3.35772 14.52 3.21968C15.1665 2.76086 15.7098 2.18783 16.1527 1.5284Z" fill="black"/>
</svg>
