<svg width="18" height="11" viewBox="0 0 18 11" fill="currentColor" xmlns="http://www.w3.org/2000/svg">
<path d="M16.8021 1.72124C16.6062 1.04818 16.032 0.517618 15.3038 0.336384C13.9735 0 8.65215 0 8.65215 0C8.65215 0 3.33103 0 2.00072 0.323631C1.28654 0.504672 0.698329 1.04828 0.50243 1.72124C0.152344 2.95056 0.152344 5.5 0.152344 5.5C0.152344 5.5 0.152344 8.06229 0.50243 9.27876C0.698536 9.95172 1.27254 10.4823 2.00083 10.6635C3.34504 11 8.65236 11 8.65236 11C8.65236 11 13.9735 11 15.3038 10.6764C16.0321 10.4952 16.6062 9.96467 16.8023 9.29171C17.1523 8.06229 17.1523 5.51295 17.1523 5.51295C17.1523 5.51295 17.1663 2.95056 16.8021 1.72124ZM6.95796 7.85527V3.14473L11.3829 5.5L6.95796 7.85527Z" fill="currentColor"/>
</svg>
