<?xml version="1.0" standalone="no"?>
<!DOCTYPE svg PUBLIC "-//W3C//DTD SVG 20010904//EN"
 "http://www.w3.org/TR/2001/REC-SVG-20010904/DTD/svg10.dtd">
<svg version="1.0" xmlns="http://www.w3.org/2000/svg"
 width="480.000000pt" height="480.000000pt" viewBox="0 0 480.000000 480.000000"
 preserveAspectRatio="xMidYMid meet">
<metadata>
Created by potrace 1.14, written by Peter Selinger 2001-2017
</metadata>
<g transform="translate(0.000000,480.000000) scale(0.100000,-0.100000)"
fill="#000000" stroke="none">
<path d="M2218 4795 c-1 -1 -34 -6 -73 -9 -38 -4 -77 -9 -85 -11 -8 -2 -37 -7
-64 -10 -87 -9 -297 -66 -434 -117 -543 -201 -997 -597 -1279 -1118 -73 -134
-170 -376 -198 -494 -68 -286 -80 -378 -79 -641 0 -190 5 -268 25 -380 6 -33
12 -69 14 -80 17 -101 78 -306 128 -430 120 -296 290 -553 513 -781 129 -131
159 -157 284 -250 226 -169 476 -294 742 -372 164 -49 218 -60 418 -86 93 -13
467 -14 540 -2 52 8 100 15 145 22 177 25 442 112 653 216 107 52 363 211 403
250 8 7 28 24 44 36 70 54 214 194 290 282 208 241 347 478 456 775 30 81 82
270 93 335 3 19 10 58 15 86 36 186 36 570 0 769 -6 33 -12 71 -14 85 -2 14
-18 77 -34 140 -81 312 -231 611 -437 876 -62 80 -255 281 -325 339 -244 202
-499 348 -775 443 -100 35 -303 87 -374 97 -25 3 -74 11 -110 17 -58 10 -473
21 -482 13z"/>
</g>
</svg>
