<svg width="25" height="24" viewBox="0 0 25 24" fill="currentColor" xmlns="http://www.w3.org/2000/svg">
<path d="M12.8723 15.78C12.7318 15.9207 12.5412 15.9999 12.3423 16H11.9623C11.7639 15.9977 11.574 15.9189 11.4323 15.78L6.30232 10.64C6.20766 10.5462 6.15442 10.4184 6.15442 10.285C6.15442 10.1517 6.20766 10.0239 6.30232 9.93004L7.01232 9.22004C7.10448 9.12598 7.23063 9.07297 7.36232 9.07297C7.49401 9.07297 7.62015 9.12598 7.71232 9.22004L12.1523 13.67L16.5923 9.22004C16.6862 9.12539 16.814 9.07214 16.9473 9.07214C17.0806 9.07214 17.2084 9.12539 17.3023 9.22004L18.0023 9.93004C18.097 10.0239 18.1502 10.1517 18.1502 10.285C18.1502 10.4184 18.097 10.5462 18.0023 10.64L12.8723 15.78Z" fill="currentColor"/>
</svg>
