<svg width="24" height="24" viewBox="0 0 24 24" fill="none" xmlns="http://www.w3.org/2000/svg">
<g id="hide-icon-svg">
<path id="Icon color" fill-rule="evenodd" clip-rule="evenodd" d="M4.37856 3.15005C4.28788 3.05338 4.16128 2.99854 4.02877 2.99854C3.89627 2.99854 3.76967 3.05338 3.67899 3.15005L3.14931 3.68005C3.05269 3.77079 2.99788 3.89747 2.99788 4.03005C2.99788 4.16264 3.05269 4.28932 3.14931 4.38005L5.74773 7.00005C4.05625 8.13216 2.76555 9.77014 2.05997 11.6801C2.02265 11.7827 2.00239 11.8908 2.00001 12.0001C1.99948 12.1063 2.01986 12.2117 2.05997 12.3101C3.68479 16.3691 7.62406 19.022 11.9939 19.0001C13.6108 18.9846 15.2044 18.6124 16.6611 17.9101L19.6093 20.8501C19.7 20.9467 19.8266 21.0016 19.9591 21.0016C20.0916 21.0016 20.2182 20.9467 20.3089 20.8501L20.8385 20.3201C20.9352 20.2293 20.99 20.1026 20.99 19.9701C20.99 19.8375 20.9352 19.7108 20.8385 19.6201L4.37856 3.15005ZM11.9939 15.0001C10.3381 15.0001 8.99575 13.6569 8.99575 12.0001C8.99827 11.5095 9.12552 11.0278 9.36552 10.6001L13.3631 14.6001C12.9473 14.8458 12.4766 14.9834 11.9939 15.0001ZM9.11567 5.41005C14.3846 3.88148 19.9529 6.60243 21.9878 11.7001C22.0041 11.7994 22.0041 11.9007 21.9878 12.0001C21.9911 12.113 21.9706 12.2254 21.9279 12.3301C21.4348 13.6826 20.6382 14.904 19.5993 15.9001L9.11567 5.41005Z" fill="#6A818A"/>
</g>
</svg>
