<svg width="24" height="24" viewBox="0 0 24 24" fill="none" xmlns="http://www.w3.org/2000/svg">
<path fill-rule="evenodd" clip-rule="evenodd" d="M6 2H18C19.1046 2 20 2.89543 20 4V15.17C20.0004 15.703 19.788 16.2142 19.41 16.59L14.59 21.41C14.2142 21.788 13.703 22.0004 13.17 22H6C4.89543 22 4 21.1046 4 20V4C4 2.89543 4.89543 2 6 2ZM7.5 6C7.22386 6 7 6.22386 7 6.5V7.5C7 7.77614 7.22386 8 7.5 8H16.5C16.7761 8 17 7.77614 17 7.5V6.5C17 6.22386 16.7761 6 16.5 6H7.5ZM12.5 12H7.5C7.22386 12 7 11.7761 7 11.5V10.5C7 10.2239 7.22386 10 7.5 10H12.5C12.7761 10 13 10.2239 13 10.5V11.5C13 11.7761 12.7761 12 12.5 12ZM13 16V20.18L18.18 15H14C13.4477 15 13 15.4477 13 16Z" fill="#3E4B51"/>
</svg>
