<svg width="25" height="24" viewBox="0 0 25 24" fill="currentColor" xmlns="http://www.w3.org/2000/svg">
<path fill-rule="evenodd" clip-rule="evenodd" d="M12.1553 4C9.9453 4 8.15376 5.79086 8.15376 8C8.15376 9.06087 8.57535 10.0783 9.32578 10.8284C10.0762 11.5786 11.094 12 12.1553 12C14.3652 12 16.1568 10.2091 16.1568 8C16.1568 5.79086 14.3652 4 12.1553 4ZM18.6077 15.66L20.0483 18.55C20.2043 18.8595 20.1889 19.2277 20.0075 19.5231C19.8261 19.8185 19.5046 19.999 19.1579 20H5.15263C4.8059 19.999 4.48444 19.8185 4.30307 19.5231C4.12169 19.2277 4.10626 18.8595 4.26229 18.55L5.70283 15.66C6.21182 14.6408 7.25432 13.9978 8.39385 14H15.9167C17.0562 13.9978 18.0987 14.6408 18.6077 15.66Z" fill="currentColor"/>
</svg>
