<svg width="25" height="24" viewBox="0 0 25 24" fill="none" xmlns="http://www.w3.org/2000/svg">
<path fill-rule="evenodd" clip-rule="evenodd" d="M12.1463 4.99996C16.5404 4.9548 20.5106 7.61642 22.1402 11.7C22.1564 11.7993 22.1564 11.9006 22.1402 12C22.1434 12.1129 22.123 12.2253 22.0802 12.33C20.449 16.3812 16.5112 19.0252 12.1463 19C7.7764 19.0219 3.83713 16.369 2.21232 12.31C2.1722 12.2116 2.15182 12.1062 2.15235 12C2.15363 11.8874 2.1739 11.7758 2.21232 11.67C3.84348 7.61872 7.78134 4.97471 12.1463 4.99996ZM9.14809 12C9.14809 13.6568 10.4904 15 12.1463 15C12.9414 15 13.704 14.6839 14.2663 14.1213C14.8286 13.5587 15.1444 12.7956 15.1444 12C15.1444 10.3431 13.8021 8.99996 12.1463 8.99996C10.4904 8.99996 9.14809 10.3431 9.14809 12Z" fill="#6A818A"/>
</svg>
